<?xml version="1.0" encoding="UTF-8"?>
<svg version="1.1" xmlns="http://www.w3.org/2000/svg" width="512" height="512">
<path d="M0 0 C1.89697266 2.31323242 1.89697266 2.31323242 3.6640625 5.35546875 C4.31117188 6.45310547 4.95828125 7.55074219 5.625 8.68164062 C6.29187441 9.85014188 6.95853935 11.01876271 7.625 12.1875 C8.29273438 13.32509766 8.96046875 14.46269531 9.6484375 15.63476562 C12.59749858 20.68650726 15.42232052 25.74737935 18 31 C11.87405737 37.7064042 5.75937905 44.38662906 -0.76953125 50.70703125 C-2.6539669 52.6442707 -4.40881867 54.61911231 -6.16796875 56.66796875 C-11.13430536 62.38824875 -16.57694075 67.62311862 -21.97265625 72.93359375 C-26.3253171 77.24433491 -30.50441435 81.61910007 -34.49462891 86.26757812 C-36.38406717 88.44199492 -38.38310225 90.48164432 -40.4375 92.5 C-41.11683594 93.1703125 -41.79617188 93.840625 -42.49609375 94.53125 C-42.99238281 95.0159375 -43.48867188 95.500625 -44 96 C-42.78054688 95.84273438 -41.56109375 95.68546875 -40.3046875 95.5234375 C-16.12005979 92.86983329 6.72896989 94.51585744 26.6875 109.375 C44.71549809 124.10480306 56.44553095 144.66918264 59 168 C60.21379143 191.33150366 56.62880886 212.91928354 40.75 231.0625 C20.42043002 252.71349203 -5.60195326 264.19403653 -35.171875 265.25390625 C-61.18533087 265.86487334 -84.22200187 262.01574582 -104.08984375 243.96484375 C-114.81801141 232.92953018 -119.37002088 219.53453917 -119.21484375 204.37890625 C-118.34688429 190.72827118 -111.66680348 180.30231745 -102 171 C-90.165276 161.16580763 -75.90947355 158.99612023 -61 160 C-43.14154214 162.68104075 -29.98460267 174.27165509 -19.16796875 187.96484375 C-5 207.8 -5 207.8 -5 214 C3.47215244 210.05606697 9.95468821 205.66442667 14 197 C18.91111455 182.93456794 17.99924506 168.13346782 11.75 154.5625 C6.59852773 145.23787661 -0.82910406 140.39695686 -10.8046875 137.0625 C-35.77225216 129.86962819 -63.08249345 134.61632171 -85.875 146.375 C-103.14509845 156.18852989 -120.47196048 170.74408404 -133.265625 186.0078125 C-136.63080373 189.8732205 -140.34071788 193.4153971 -144 197 C-148.29067546 195.34763349 -151.1429553 192.1094793 -154.296875 188.8984375 C-155.18732513 188.00374252 -155.18732513 188.00374252 -156.09576416 187.0909729 C-157.98526627 185.1903019 -159.86768392 183.28278526 -161.75 181.375 C-163.03209065 180.08287532 -164.31463761 178.79120324 -165.59765625 177.5 C-168.73708432 174.33855521 -171.87017801 171.1709539 -175 168 C-174.05862407 166.88607272 -173.1149831 165.7740594 -172.17041016 164.6628418 C-171.38254623 163.73365181 -171.38254623 163.73365181 -170.57876587 162.78569031 C-168.34663384 160.26099896 -165.89003929 158.05298648 -163.375 155.8125 C-156.38321329 149.49946651 -149.76650973 142.82669185 -143.15576172 136.1184082 C-142.34510254 135.29945068 -141.53444336 134.48049316 -140.69921875 133.63671875 C-139.98596436 132.91186279 -139.27270996 132.18700684 -138.5378418 131.44018555 C-136.50210197 129.48278107 -134.43885375 127.636345 -132.30029297 125.79589844 C-127.48805094 121.61513072 -122.99660455 117.14034597 -118.49609375 112.62890625 C-117.6139772 111.74774643 -116.73186066 110.86658661 -115.82301331 109.95872498 C-113.49767191 107.6342325 -111.17476382 105.30734093 -108.85266113 102.97961426 C-107.43855176 101.56355322 -106.02250879 100.14945679 -104.60571289 98.73608398 C-101.8581328 95.99471744 -99.11407894 93.24986966 -96.37109375 90.50390625 C-95.53549423 89.67033096 -94.69989471 88.83675568 -93.838974 87.97792053 C-89.55893081 83.68089638 -85.44411959 79.30761873 -81.48817444 74.71055603 C-79.69020593 72.64391264 -77.79829533 70.69985885 -75.84375 68.78125 C-75.13089844 68.07613281 -74.41804688 67.37101562 -73.68359375 66.64453125 C-72.22786458 65.21484375 -70.77213542 63.78515625 -69.31640625 62.35546875 C-64.6556402 57.74527159 -60.24386539 52.99713468 -56 48 C-64.01224331 47.85025788 -71.92145374 48.276464 -79.91088867 48.8550415 C-95.63224611 49.97955132 -111.23567354 50.24258552 -127 50 C-129.21453172 41.53165381 -131.05827085 33.03648285 -132.6875 24.4375 C-132.91244141 23.27669922 -133.13738281 22.11589844 -133.36914062 20.91992188 C-135 12.38889153 -135 12.38889153 -135 9 C-134.41373337 8.99413376 -133.82746674 8.98826752 -133.22343445 8.98222351 C-94.47141643 8.57817492 -56.88735144 6.84534697 -18.58911133 0.89379883 C-17.72062057 0.76155411 -16.85212982 0.62930939 -15.95732117 0.49305725 C-14.32931023 0.24439613 -12.70234407 -0.01124543 -11.07673645 -0.27516174 C-3.47743968 -1.42823415 -3.47743968 -1.42823415 0 0 Z M-76 201 C-78.19842169 203.4732244 -78 204.99165486 -78 208.3125 C-76.53417868 213.71771611 -73.77394946 217.15832634 -69.10546875 220.2578125 C-60.88798019 224.63398984 -53.2055718 225.30459613 -44 225 C-48.45714644 214.8272187 -53.93134907 205.40754564 -64 200 C-68.44205859 198.48034838 -71.68001215 199.2883067 -76 201 Z " fill="#2E4E4E" transform="translate(452,122)"/>
<path d="M0 0 C14.19 0 28.38 0 43 0 C43.01458252 5.72835205 43.02916504 11.4567041 43.04418945 17.35864258 C43.09452795 36.28581243 43.16097212 55.21290043 43.23571491 74.1399889 C43.2806379 85.61537061 43.32006067 97.09072154 43.34643555 108.56616211 C43.3694439 118.57074387 43.4028737 128.57522791 43.44870156 138.57973212 C43.47259542 143.87468542 43.49134936 149.16954216 43.49761391 154.46454811 C43.50368208 159.45419152 43.52374452 164.44358798 43.55427551 169.4331398 C43.56302799 171.25875442 43.56678414 173.08440135 43.56500816 174.91003609 C43.44444844 193.53438371 43.44444844 193.53438371 52.6796875 209.12109375 C62.75199356 217.27728772 76.73725086 216.86725883 89 216 C120.58953485 211.9016698 151.99821751 187.71837893 171.53515625 163.62109375 C173.18939694 161.79040071 174.98989734 160.42220167 177 159 C182.7450834 165.76339184 188.14577116 172.75414098 193.4375 179.875 C194.36006592 181.10536987 194.36006592 181.10536987 195.30126953 182.3605957 C195.88118652 183.146521 196.46110352 183.93244629 197.05859375 184.7421875 C197.83674438 185.79188721 197.83674438 185.79188721 198.63061523 186.86279297 C200.10250047 189.15997309 201.06552854 191.44229319 202 194 C199.29817708 196.70182292 196.59635417 199.40364583 193.89453125 202.10546875 C193.41097168 202.58935059 192.92741211 203.07323242 192.42919922 203.57177734 C191.07880021 204.92125364 189.72504913 206.26737316 188.37109375 207.61328125 C186.93938483 209.05442483 185.5238014 210.51221362 184.140625 212 C159.09608878 238.49339368 120.72412995 257.72408612 84 259 C83.00226563 259.03996094 82.00453125 259.07992188 80.9765625 259.12109375 C59.21145163 259.56904397 37.49112603 254.75775647 21.25317383 239.53417969 C4.95444323 223.28177553 -0.24512606 200.68667695 -0.37482607 178.31715786 C-0.37321459 175.7541993 -0.35709678 173.19156445 -0.34057617 170.62866211 C-0.33972752 168.75425734 -0.34020967 166.87985158 -0.34190369 165.00544739 C-0.34275578 159.97346674 -0.32525903 154.94170564 -0.30418181 149.9097755 C-0.28528231 144.63009332 -0.2836542 139.35040475 -0.28010559 134.07069397 C-0.27082379 124.09807579 -0.24626295 114.12555762 -0.21605712 104.15298325 C-0.18239199 92.78885322 -0.1659968 81.42471814 -0.15097082 70.06055057 C-0.11970946 46.70696569 -0.06474637 23.3535177 0 0 Z " fill="#2E4E4E" transform="translate(1,126)"/>
</svg>
