<?xml version="1.0" encoding="UTF-8"?>
<svg version="1.1" xmlns="http://www.w3.org/2000/svg" width="512" height="512">
<path d="M0 0 C1.74417353 2.11602779 3.06752024 3.9802424 4.4375 6.3125 C5.00114258 7.18551758 5.00114258 7.18551758 5.57617188 8.07617188 C6.62109375 9.80078125 6.62109375 9.80078125 8 13 C7.40234375 15.19921875 7.40234375 15.19921875 6 17 C5.56945312 17.5671875 5.13890625 18.134375 4.6953125 18.71875 C0.45805305 23.52519356 -4.01291081 28.04916866 -8.56884766 32.54980469 C-12.58251602 36.53166902 -16.37424114 40.65930277 -20 45 C-18.80117188 44.94779297 -18.80117188 44.94779297 -17.578125 44.89453125 C-5.68122534 44.60129781 4.73433858 46.06293435 14 54 C23.52399202 63.16747895 27.98321679 72.64640512 28.3125 85.875 C28.10594428 97.25986537 24.77887357 105.75101965 17.03125 114.12890625 C6.22167689 124.44891536 -6.24767971 128.36280028 -20.875 128.3125 C-21.80441406 128.32861328 -22.73382813 128.34472656 -23.69140625 128.36132812 C-34.8636355 128.36911908 -43.49467322 125.29675459 -52 118 C-56.82937285 112.98966704 -58.94409767 107.44423518 -59.03125 100.515625 C-58.57058099 92.91458641 -56.30954574 87.92875494 -50.75 82.75 C-44.88850896 78.09565255 -38.98099965 76.38172819 -31.51171875 76.65625 C-22.48224425 77.89201012 -15.4999625 83.52859121 -10.015625 90.53515625 C-7.37772818 94.23584207 -4.94762058 97.88730606 -3 102 C0.57187114 101.10703222 1.94835855 100.06280717 4.3125 97.1875 C7.29018558 91.41369504 7.09360821 83.86056876 5.3515625 77.7109375 C4.50619511 75.66658483 4.50619511 75.66658483 3 73 C2.67 72.01 2.34 71.02 2 70 C-0.24743756 68.84979475 -0.24743756 68.84979475 -3 68 C-3.87140625 67.65839844 -4.7428125 67.31679688 -5.640625 66.96484375 C-18.71415836 63.21000335 -33.27912204 66.1511911 -45 72.5 C-54.36028547 78.50096605 -62.26808933 87.08827745 -70 95 C-74.32504836 93.34136495 -77.09418825 90.128959 -80.25 86.875 C-80.80429687 86.31167969 -81.35859375 85.74835938 -81.9296875 85.16796875 C-83.29104485 83.78313972 -84.64614859 82.39216796 -86 81 C-82.59227836 77.59072292 -79.18086903 74.18519176 -75.76660156 70.7824707 C-70.7397398 65.77187017 -65.71535972 60.75878915 -60.6924324 55.74424458 C-57.65971148 52.7167671 -54.62605103 49.69024295 -51.59033203 46.66577148 C-48.64519714 43.73147422 -45.70248756 40.79476501 -42.76146698 37.85634422 C-41.64115956 36.73788631 -40.5199715 35.62030978 -39.39789581 34.50362587 C-37.83488296 32.94783708 -36.27499208 31.38898256 -34.71582031 29.8293457 C-33.82711243 28.94285843 -32.93840454 28.05637115 -32.02276611 27.14302063 C-29.96383829 25.16827799 -29.96383829 25.16827799 -29 23 C-29.57540527 23.0714624 -30.15081055 23.1429248 -30.74365234 23.21655273 C-37.7236216 24.00737648 -44.60586692 24.11793665 -51.625 24.0625 C-52.72457031 24.05798828 -53.82414062 24.05347656 -54.95703125 24.04882812 C-57.6380449 24.03717154 -60.31903006 24.01924141 -63 24 C-64.32 17.4 -65.64 10.8 -67 4 C-64.44185547 3.92652344 -64.44185547 3.92652344 -61.83203125 3.8515625 C-43.69770296 3.28474145 -25.71806557 2.31962146 -7.8125 -0.73046875 C-4.74710916 -1.02423537 -2.87672089 -1.13197798 0 0 Z M-38 98 C-38.50135199 100.37221956 -38.50135199 100.37221956 -38 103 C-34.00630802 107.6593073 -28.77619848 108.14759013 -23 109 C-24.28000102 103.99635967 -26.17328076 101.43423522 -30 98 C-30.33 97.67 -30.66 97.34 -31 97 C-34.80240375 96.52263947 -34.80240375 96.52263947 -38 98 Z " fill="#2E4E4E" transform="translate(363,192)"/>
<path d="M0 0 C7.26 0 14.52 0 22 0 C22.01458252 2.85164795 22.02916504 5.7032959 22.04418945 8.64135742 C22.09451684 18.06112262 22.1611087 27.48072218 22.23571491 36.90032482 C22.28045048 42.61167682 22.31969972 48.32295696 22.34643555 54.03442383 C22.37243652 59.54587252 22.41281653 65.05704515 22.46318626 70.56832314 C22.47987662 72.67142619 22.49137736 74.77457701 22.49761391 76.87773705 C22.50723125 79.82267604 22.53526268 82.76690529 22.56762695 85.71166992 C22.56547432 87.01718559 22.56547432 87.01718559 22.5632782 88.34907532 C22.63657521 93.06216155 22.97309895 96.15692676 26 100 C30.52038019 103.95533266 36.22654235 104.11174434 42 104 C59.92404946 101.59298945 72.94855016 89.58706983 85 77 C89.62233847 78.53357959 91.6356531 82.28707795 94.25 86.125 C94.70890625 86.78371094 95.1678125 87.44242187 95.640625 88.12109375 C96.76821231 89.7420005 97.88516391 91.37029686 99 93 C86.06912391 109.07622432 68.62567808 121.51217705 48 125 C35.60375908 126.29254947 23.00084267 125.72758737 12.5390625 118.23828125 C3.66717754 110.10846845 0.46114037 99.56161397 -0.10569 87.80854797 C-0.27689266 81.58657861 -0.22969357 75.36415971 -0.1953125 69.140625 C-0.19157544 67.13995506 -0.18873175 65.13928327 -0.18673706 63.13861084 C-0.17915516 57.91083592 -0.15955431 52.68317477 -0.1373291 47.45544434 C-0.11675249 42.10572854 -0.10771024 36.75599409 -0.09765625 31.40625 C-0.07630254 20.93744236 -0.04116568 10.4687485 0 0 Z " fill="#2E4E4E" transform="translate(143,194)"/>
</svg>
