<svg xmlns="http://www.w3.org/2000/svg" width="256" height="256">
    <path style="fill-rule:nonzero;fill:#000;fill-opacity:1;stroke-width:2;stroke-linecap:square;stroke-linejoin:round;stroke:#000;stroke-opacity:1;stroke-miterlimit:4" d="m38.396 2.457-.803 5.515c1.114.046 2.503.188 3.75.305 2.533.289 9.928 1.22 12.405 1.549-2.678 1.684-8.665 5.04-11.69 6.762-3.145 1.846-9.814 5.767-13.854 7.996l3.198 4.645c6.312-4.958 11.538-7.86 18.97-6.58 5.728.985 9.562 4.764 8.804 9.166-.912 5.3-5.852 7.668-13.852 6.291-3.124-.537-5.042-2.134-4.709-4.075.229-1.326 1.749-2.233 3.643-1.908 3.029.522 4.593 3.325 4.117 6.947l5.037.184c.682-5.097-2.064-10.102-8.454-11.202-4.876-.839-8.767 1.952-9.394 5.597-.782 4.544 3.399 8.286 9.93 9.409 11.078 1.907 17.87-2.725 19.164-10.251 1.157-6.722-3.952-12.718-11.951-14.095a19.376 19.376 0 0 0-5.18-.208c3.612-2.011 9.79-5.627 12.609-6.994 1.123-.586 2.327-1.062 3.482-1.545l-2.18-4.323c-.554.1-1.572.071-3.396-.097-2.69-.22-13.146-1.775-15.654-2.206-1.23-.212-2.785-.528-3.992-.882ZM9.36 24.319l-6.958 1.13c.68 1.672 1.194 3.82 1.562 5.99.744 4.394 2.438 17.016 3.567 23.676 1.383 8.157 6.911 10.595 14.585 9.294 10.86-1.841 16.496-9.301 18.847-14.466l-4.71-4.067c-2.6 5.753-6.874 11.294-15.08 12.685-3.957.672-7.276-.454-8.126-5.474-1.072-6.322-2.592-17.335-3.244-22.637-.214-1.85-.405-4.151-.443-6.131Zm0 0" transform="matrix(3.86253 0 0 3.87804 -3.932 -2.558)"/>
</svg>
