<svg width="250.499" height="248.53" viewBox="0 0 66.278 65.757" xmlns="http://www.w3.org/2000/svg">
    <g transform="translate(-.597 -.788)" style="display:inline">
        <path style="font-weight:600;font-size:132.676px;line-height:0;font-family:Inter;-inkscape-font-specification:'Inter Semi-Bold';display:inline;fill:#000;fill-opacity:1;stroke:#000;stroke-width:2.64583;stroke-linecap:square;stroke-linejoin:round;stroke-dasharray:none;stroke-opacity:1;paint-order:markers fill stroke" d="m37.17 12.326-.661 4.543c.917.038 2.061.154 3.088.25 2.087.24 8.179 1.007 10.22 1.278-2.206 1.387-7.139 4.152-9.631 5.57-2.59 1.521-8.085 4.752-11.413 6.588l2.634 3.826c5.2-4.084 9.506-6.475 15.629-5.421 4.718.812 7.877 3.925 7.253 7.552-.752 4.367-4.822 6.317-11.412 5.183-2.574-.443-4.154-1.759-3.88-3.358.189-1.092 1.442-1.84 3.002-1.571 2.495.43 3.784 2.739 3.391 5.723l4.15.152c.562-4.2-1.7-8.323-6.964-9.229-4.017-.691-7.223 1.608-7.74 4.61-.644 3.744 2.8 6.827 8.182 7.753 9.125 1.57 14.72-2.245 15.788-8.446.952-5.538-3.257-10.478-9.847-11.612a15.97 15.97 0 0 0-4.267-.172c2.975-1.656 8.065-4.635 10.387-5.761.926-.483 1.917-.875 2.87-1.273l-1.797-3.561c-.456.082-1.295.058-2.797-.08-2.217-.181-10.83-1.462-12.897-1.818-1.014-.174-2.294-.435-3.288-.726Z" aria-label="る"/>
        <path d="m14.838 29.912-5.732.931c.56 1.378.983 3.147 1.287 4.936.613 3.618 2.008 14.017 2.939 19.504 1.139 6.72 5.693 8.73 12.015 7.657 8.946-1.516 13.59-7.662 15.527-11.918l-3.881-3.35c-2.142 4.74-5.663 9.304-12.422 10.45-3.26.553-5.995-.374-6.696-4.509-.883-5.209-2.135-14.282-2.671-18.65-.177-1.524-.335-3.42-.366-5.05z" style="font-weight:600;font-size:134.033px;line-height:0;font-family:Inter;-inkscape-font-specification:'Inter Semi-Bold';display:inline;fill:#000;fill-opacity:1;stroke:#000;stroke-width:2.64583;stroke-linecap:square;stroke-linejoin:round;stroke-dasharray:none;stroke-opacity:1;paint-order:markers fill stroke" aria-label="し"/>
        <circle cx="60.855" cy="6.807" r="6.014" style="fill:#000;fill-opacity:1;stroke-width:1.71816"/>
    </g>
</svg>
